<svg version="1.1" xmlns="http://www.w3.org/2000/svg" xmlns:xlink="http://www.w3.org/1999/xlink" width="200" height="200" viewBox="0,0,256,256"><defs><linearGradient x1="0.764" y1="511.236" x2="558.262" y2="-46.262" gradientUnits="userSpaceOnUse" id="color-1"><stop offset="0" stop-color="#ffffff"/><stop offset="0.518" stop-color="#ffffff"/><stop offset="1" stop-color="#ffffff"/></linearGradient><linearGradient x1="199.06386" y1="69783.17891" x2="40370.56984" y2="-6035.54901" gradientUnits="userSpaceOnUse" id="color-2"><stop offset="0" stop-color="#ffffff"/><stop offset="0.518" stop-color="#ffffff"/><stop offset="1" stop-color="#ffffff"/></linearGradient><linearGradient x1="0.764" y1="511.236" x2="558.262" y2="-46.262" gradientUnits="userSpaceOnUse" id="color-3"><stop offset="0" stop-color="#ffffff"/><stop offset="0.518" stop-color="#ffffff"/><stop offset="1" stop-color="#ffffff"/></linearGradient><linearGradient x1="-987.328" y1="23283.328" x2="25772.576" y2="-3476.576" gradientUnits="userSpaceOnUse" id="color-4"><stop offset="0" stop-color="#ffffff"/><stop offset="0.518" stop-color="#ffffff"/><stop offset="1" stop-color="#ffffff"/></linearGradient><linearGradient x1="1764.672" y1="26019.328" x2="28524.576" y2="-740.576" gradientUnits="userSpaceOnUse" id="color-5"><stop offset="0" stop-color="#ffffff"/><stop offset="0.518" stop-color="#ffffff"/><stop offset="1" stop-color="#ffffff"/></linearGradient><linearGradient x1="6338.944" y1="259532.56" x2="282857.952" y2="-16986.448" gradientUnits="userSpaceOnUse" id="color-6"><stop offset="0" stop-color="#ffffff"/><stop offset="0.518" stop-color="#ffffff"/><stop offset="1" stop-color="#ffffff"/></linearGradient></defs><g fill="none" fill-rule="nonzero" stroke="none" stroke-width="1" stroke-linecap="butt" stroke-linejoin="miter" stroke-miterlimit="10" stroke-dasharray="" stroke-dashoffset="0" font-family="none" font-weight="none" font-size="none" text-anchor="none" style="mix-blend-mode: normal"><g transform="scale(0.5,0.5)"><path d="M168,216c-70.69245,0 -128,57.30755 -128,128c0,70.69245 57.30755,128 128,128c70.69245,0 128,-57.30755 128,-128c-0.08046,-70.65909 -57.34091,-127.91954 -128,-128zM176,455.711v-7.711c0,-4.41828 -3.58172,-8 -8,-8c-4.41828,0 -8,3.58172 -8,8v7.711c-55.51438,-4.04919 -99.66181,-48.19662 -103.711,-103.711h7.711c4.41828,0 8,-3.58172 8,-8c0,-4.41828 -3.58172,-8 -8,-8h-7.711c4.04919,-55.51438 48.19662,-99.66181 103.711,-103.711v7.711c0,4.41828 3.58172,8 8,8c4.41828,0 8,-3.58172 8,-8v-7.711c55.51438,4.04919 99.66181,48.19662 103.711,103.711h-7.711c-4.41828,0 -8,3.58172 -8,8c0,4.41828 3.58172,8 8,8h7.711c-4.04919,55.51438 -48.19662,99.66181 -103.711,103.711z" fill="url(#color-1)"/><path d="M189.655,354.34c2.94236,-6.1595 3.12118,-13.28083 0.49166,-19.58024c-2.62952,-6.29941 -7.81831,-11.18018 -14.26666,-13.41976c0.07735,-0.44253 0.11749,-0.89077 0.12,-1.34v-56c0,-4.41828 -3.58172,-8 -8,-8c-4.41828,0 -8,3.58172 -8,8v56c0.00279,0.44756 0.04293,0.89411 0.12,1.335c-8.42115,2.90269 -14.54203,10.23054 -15.8989,19.03396c-1.35687,8.80342 2.27348,17.63422 9.42978,22.93787c7.1563,5.30365 16.66131,6.20767 24.68912,2.34818l24,24c3.12427,3.12427 8.18973,3.12427 11.314,0c3.12427,-3.12427 3.12427,-8.18973 0,-11.314zM160,344c0,-4.41828 3.58172,-8 8,-8c4.41828,0 8,3.58172 8,8c0,4.41828 -3.58172,8 -8,8c-4.41622,-0.00496 -7.99504,-3.58378 -8,-8z" fill="url(#color-2)"/><path d="M330.343,181.657c1.5003,1.50038 3.5352,2.34329 5.657,2.34329c2.1218,0 4.1567,-0.84291 5.657,-2.34329l80,-80c3.12427,-3.12427 3.12427,-8.18973 0,-11.314c-3.12427,-3.12427 -8.18973,-3.12427 -11.314,0l-80,80c-1.50038,1.5003 -2.34329,3.5352 -2.34329,5.657c0,2.1218 0.84291,4.1567 2.34329,5.657z" fill="url(#color-3)"/><path d="M344,136c13.25483,0 24,-10.74517 24,-24c0,-13.25483 -10.74517,-24 -24,-24c-13.25483,0 -24,10.74517 -24,24c0.01543,13.24844 10.75156,23.98457 24,24zM344,104c4.41828,0 8,3.58172 8,8c0,4.41828 -3.58172,8 -8,8c-4.41828,0 -8,-3.58172 -8,-8c0.00496,-4.41622 3.58378,-7.99504 8,-8z" fill="url(#color-4)"/><path d="M384,160c0,13.25483 10.74517,24 24,24c13.25483,0 24,-10.74517 24,-24c0,-13.25483 -10.74517,-24 -24,-24c-13.24844,0.01543 -23.98457,10.75156 -24,24zM416,160c0,4.41828 -3.58172,8 -8,8c-4.41828,0 -8,-3.58172 -8,-8c0,-4.41828 3.58172,-8 8,-8c4.41622,0.00496 7.99504,3.58378 8,8z" fill="url(#color-5)"/><path d="M496,8h-240c-4.41828,0 -8,3.58172 -8,8c0,4.41828 3.58172,8 8,8h24v205.86c-21.9898,-21.64012 -49.77538,-36.44983 -80,-42.64v-27.22c0,-4.41828 -3.58172,-8 -8,-8h-48c-4.41828,0 -8,3.58172 -8,8v27.22c-72.94,14.86 -128,79.51 -128,156.78c0,88.22 71.78,160 160,160c76.01,0 139.8,-53.28 156.01,-124.45l46.61,42.37c3.05096,2.7723 7.70904,2.7723 10.76,0l88,-80c1.66771,-1.51656 2.61891,-3.66584 2.62,-5.92v-312h24c4.41828,0 8,-3.58172 8,-8c0,-4.41828 -3.58172,-8 -8,-8zM152,168h32v16h-32zM168,488c-79.4,0 -144,-64.6 -144,-144c0,-79.4 64.6,-144 144,-144c79.4,0 144,64.6 144,144c0,79.4 -64.6,144 -144,144zM456,332.46l-80,72.73l-48.88,-44.43c4.23033,-40.13304 -6.88799,-80.37979 -31.12,-112.65v-224.11h160z" fill="url(#color-6)"/></g></g></svg>