<svg version="1.1" xmlns="http://www.w3.org/2000/svg" xmlns:xlink="http://www.w3.org/1999/xlink" width="50px" height="50px" viewBox="0,0,256,256"><g fill="#e91e63" fill-rule="nonzero" stroke="none" stroke-width="1" stroke-linecap="butt" stroke-linejoin="miter" stroke-miterlimit="10" stroke-dasharray="" stroke-dashoffset="0" font-family="none" font-weight="none" font-size="none" text-anchor="none" style="mix-blend-mode: normal"><g transform="scale(5.12,5.12)"><path d="M12,0c-1.09375,0 -2,0.90625 -2,2v2h-6c-0.52344,0 -1.05469,0.19141 -1.42969,0.57031c-0.37891,0.375 -0.57031,0.90625 -0.57031,1.42969v40c0,0.52344 0.19141,1.05469 0.57031,1.43359c0.375,0.375 0.90625,0.56641 1.42969,0.56641h42c0.52344,0 1.05469,-0.19141 1.43359,-0.56641c0.375,-0.37891 0.56641,-0.91016 0.56641,-1.43359v-40c0,-0.52344 -0.19141,-1.05469 -0.56641,-1.42969c-0.37891,-0.37891 -0.91016,-0.57031 -1.43359,-0.57031h-6v-2c0,-1.09375 -0.90625,-2 -2,-2h-2c-1.09375,0 -2,0.90625 -2,2v2h-18v-2c0,-1.09375 -0.90625,-2 -2,-2zM12,2h2v6h-2zM36,2h2v6h-2zM4,6h6v2c0,1.09375 0.90625,2 2,2h2c1.09375,0 2,-0.90625 2,-2v-2h18v2c0,1.09375 0.90625,2 2,2h2c1.09375,0 2,-0.90625 2,-2v-2h6v7h-42zM4,15h42v31h-42zM10,19v23h30v-23zM12,21h5v5h-5zM19,21h5v5h-5zM26,21h5v5h-5zM33,21h5v5h-5zM12,28h5v5h-5zM19,28h5v5h-5zM33,28h5v5h-5zM12,35h5v5h-5zM19,35h5v5h-5zM26,35h5v5h-5zM33,35h5v5h-5z"/></g></g></svg>