<svg version="1.1" xmlns="http://www.w3.org/2000/svg" xmlns:xlink="http://www.w3.org/1999/xlink" width="256px" height="256px" viewBox="0,0,256,256"><g fill="none" fill-rule="nonzero" stroke="none" stroke-width="1" stroke-linecap="butt" stroke-linejoin="miter" stroke-miterlimit="10" stroke-dasharray="" stroke-dashoffset="0" font-family="none" font-weight="none" font-size="none" text-anchor="none" style="mix-blend-mode: normal"><g><g id="Layer_1"><path d="M111,176.265h-96c-2.761,0 -5,-2.239 -5,-5v-148c0,-2.761 2.239,-5 5,-5h96c2.761,0 5,2.239 5,5v148c0,2.762 -2.239,5 -5,5z" fill="#ffffff"/><path d="M241,234.265h-96c-2.761,0 -5,-2.239 -5,-5v-148c0,-2.761 2.239,-5 5,-5h96c2.761,0 5,2.239 5,5v148c0,2.762 -2.239,5 -5,5z" fill="#ffffff"/><path d="M90.385,224.139c2,1.155 2,4.041 0,5.196l-7.385,4.264l-7.385,4.264c-2,1.155 -4.5,-0.289 -4.5,-2.598v-8.527v-8.527c0,-2.309 2.5,-3.753 4.5,-2.598l7.385,4.262z" fill="#ffffff"/><path d="M210.431,59.679c-1.155,2 -4.041,2 -5.196,0l-4.264,-7.385l-4.264,-7.385c-1.155,-2 0.289,-4.5 2.598,-4.5h8.527h8.527c2.309,0 3.753,2.5 2.598,4.5l-4.264,7.385z" fill="#ffffff"/><path d="M116,23.265v148c0,2.76 -2.24,5 -5,5h-15c2.76,0 5,-2.24 5,-5v-148c0,-2.76 -2.24,-5 -5,-5h15c2.76,0 5,2.24 5,5z" fill="#ffffff"/><path d="M30,176.265h-15c-2.76,0 -5,-2.24 -5,-5v-148c0,-2.76 2.24,-5 5,-5h15c-2.76,0 -5,2.24 -5,5v148c0,2.76 2.24,5 5,5z" fill="#ffffff"/><path d="M246,81.265v148c0,2.76 -2.24,5 -5,5h-15c2.76,0 5,-2.24 5,-5v-148c0,-2.76 -2.24,-5 -5,-5h15c2.76,0 5,2.24 5,5z" fill="#ffffff"/><path d="M160,234.265h-15c-2.76,0 -5,-2.24 -5,-5v-148c0,-2.76 2.24,-5 5,-5h15c-2.76,0 -5,2.24 -5,5v148c0,2.76 2.24,5 5,5z" fill="#ffffff"/><rect x="27.888" y="35.29" width="15.156" height="14.073" fill="#ffffff"/><rect x="27.888" y="62.759" width="15.156" height="14.073" fill="#ffffff"/><rect x="27.888" y="90.229" width="15.156" height="14.073" fill="#ffffff"/><rect x="27.888" y="117.698" width="15.156" height="14.073" fill="#ffffff"/><rect x="27.888" y="145.168" width="15.156" height="14.073" fill="#ffffff"/><circle cx="164.252" cy="99.696" r="7.918" fill="#ffffff"/><circle cx="164.534" cy="127.693" r="7.918" fill="#ffffff"/><circle cx="164.534" cy="155.407" r="7.918" fill="#ffffff"/><circle cx="164.534" cy="183.121" r="7.918" fill="#ffffff"/><circle cx="164.534" cy="210.835" r="7.918" fill="#ffffff"/><path d="M158.37,21.725h34.3c6.46,0 10.96,3.36 10.96,6.39v8.29h-4.32c-5.396,0 -8.759,5.826 -6.07,10.5l8.53,14.77c2.684,4.629 9.363,4.713 12.13,0l8.52,-14.77c2.704,-4.663 -0.673,-10.5 -6.06,-10.5h-4.73v-8.29c0,-8.07 -8.33,-14.39 -18.96,-14.39h-34.3c-5.285,0 -5.293,8 0,8zM214.63,44.405c-3.694,6.391 -2.162,3.739 -6.8,11.77c-5.008,-8.681 -3.505,-6.075 -6.79,-11.77c4.88,0 8.504,0 13.59,0z" fill="#e91e63"/><path d="M111,14.265h-96c-4.96,0 -9,4.04 -9,9v148c0,4.96 4.04,9 9,9h96c4.96,0 9,-4.04 9,-9v-148c0,-4.96 -4.04,-9 -9,-9zM112,171.265c0,0.55 -0.45,1 -1,1h-96c-0.55,0 -1,-0.45 -1,-1v-148c0,-0.55 0.45,-1 1,-1h96c0.55,0 1,0.45 1,1z" fill="#e91e63"/><path d="M241,72.265h-96c-4.96,0 -9,4.04 -9,9v148c0,4.96 4.04,9 9,9h96c4.96,0 9,-4.04 9,-9v-148c0,-4.96 -4.04,-9 -9,-9zM242,229.265c0,0.55 -0.45,1 -1,1h-96c-0.55,0 -1,-0.45 -1,-1v-148c0,-0.55 0.45,-1 1,-1h96c0.55,0 1,0.45 1,1z" fill="#e91e63"/><path d="M43.04,31.285h-15.15c-2.21,0 -4,1.8 -4,4v14.08c0,2.21 1.79,4 4,4h15.15c2.21,0 4,-1.79 4,-4v-14.08c0,-2.2 -1.79,-4 -4,-4zM39.04,45.365h-7.15v-6.08h7.15z" fill="#e91e63"/><path d="M43.04,58.755h-15.15c-2.21,0 -4,1.8 -4,4v14.08c0,2.21 1.79,4 4,4h15.15c2.21,0 4,-1.79 4,-4v-14.08c0,-2.2 -1.79,-4 -4,-4zM39.04,72.835h-7.15v-6.08h7.15z" fill="#e91e63"/><path d="M43.04,86.225h-15.15c-2.21,0 -4,1.79 -4,4v14.08c0,2.21 1.79,4 4,4h15.15c2.21,0 4,-1.79 4,-4v-14.08c0,-2.21 -1.79,-4 -4,-4zM39.04,100.305h-7.15v-6.08h7.15z" fill="#e91e63"/><path d="M43.04,113.695h-15.15c-2.21,0 -4,1.79 -4,4v14.08c0,2.2 1.79,4 4,4h15.15c2.21,0 4,-1.8 4,-4v-14.08c0,-2.21 -1.79,-4 -4,-4zM39.04,127.775h-7.15v-6.08h7.15z" fill="#e91e63"/><path d="M43.04,141.165h-15.15c-2.21,0 -4,1.79 -4,4v14.08c0,2.2 1.79,4 4,4h15.15c2.21,0 4,-1.8 4,-4v-14.08c0,-2.21 -1.79,-4 -4,-4zM39.04,155.245h-7.15v-6.08h7.15z" fill="#e91e63"/><path d="M59.24,46.325h25.39c5.285,0 5.293,-8 0,-8h-25.39c-5.285,0 -5.293,8 0,8z" fill="#e91e63"/><path d="M97.53,65.795h-38.29c-5.285,0 -5.293,8 0,8h38.29c5.285,0 5.293,-8 0,-8z" fill="#e91e63"/><path d="M97.53,93.535h-38.29c-5.285,0 -5.293,8 0,8h38.29c5.285,0 5.293,-8 0,-8z" fill="#e91e63"/><path d="M97.53,121.145h-38.29c-5.305,0 -5.274,8 0,8h38.29c5.281,0 5.294,-8 0,-8z" fill="#e91e63"/><path d="M84.63,148.745h-25.39c-5.285,0 -5.293,8 0,8h25.39c5.285,0 5.293,-8 0,-8z" fill="#e91e63"/><path d="M92.38,220.675l-14.76,-8.53c-4.693,-2.688 -10.5,0.678 -10.5,6.06v4.55h-13.64c-4.56,0 -8.28,-3.22 -8.28,-7.18v-25.64c0,-5.285 -8,-5.293 -8,0v25.64c0,8.37 7.31,15.18 16.28,15.18h13.64v4.51c0,5.377 5.785,8.76 10.5,6.06l14.76,-8.53c4.63,-2.651 4.714,-9.42 0,-12.12zM75.12,233.535c0,-5.78 0,-7.051 0,-13.59c6.016,3.471 3.399,1.96 11.76,6.79c-8.336,4.822 -5.692,3.293 -11.76,6.8z" fill="#e91e63"/><path d="M189.38,103.695h24.78c2.21,0 4,-1.79 4,-4c0,-2.21 -1.79,-4 -4,-4h-24.78c-2.21,0 -4,1.79 -4,4c0,2.21 1.79,4 4,4z" fill="#e91e63"/><path d="M229.67,123.695h-40.29c-5.285,0 -5.293,8 0,8h40.29c5.285,0 5.293,-8 0,-8z" fill="#e91e63"/><path d="M189.38,159.405h25.35c5.288,0 5.285,-8 0,-8h-25.35c-5.285,0 -5.293,8 0,8z" fill="#e91e63"/><path d="M189.38,187.125h40.29c5.281,0 5.294,-8 0,-8h-40.29c-5.303,0 -5.276,8 0,8z" fill="#e91e63"/><path d="M229.67,206.835h-40.29c-5.285,0 -5.293,8 0,8h40.29c5.285,0 5.293,-8 0,-8z" fill="#e91e63"/><path d="M164.25,111.615c6.57,0 11.92,-5.35 11.92,-11.92c0,-6.57 -5.35,-11.92 -11.92,-11.92c-6.57,0 -11.92,5.35 -11.92,11.92c0,6.57 5.35,11.92 11.92,11.92zM164.25,95.775c2.16,0 3.92,1.76 3.92,3.92c0,2.16 -1.76,3.92 -3.92,3.92c-2.16,0 -3.92,-1.76 -3.92,-3.92c0,-2.16 1.76,-3.92 3.92,-3.92z" fill="#e91e63"/><path d="M164.53,115.775c-6.57,0 -11.91,5.35 -11.91,11.92c0,6.57 5.34,11.92 11.91,11.92c6.58,0 11.92,-5.35 11.92,-11.92c0,-6.57 -5.34,-11.92 -11.92,-11.92zM164.53,131.615c-2.16,0 -3.91,-1.76 -3.91,-3.92c0,-2.16 1.75,-3.92 3.91,-3.92c2.16,0 3.92,1.76 3.92,3.92c0,2.16 -1.76,3.92 -3.92,3.92z" fill="#e91e63"/><path d="M164.53,143.485c-6.57,0 -11.91,5.35 -11.91,11.92c0,6.57 5.34,11.92 11.91,11.92c6.58,0 11.92,-5.35 11.92,-11.92c0,-6.57 -5.34,-11.92 -11.92,-11.92zM164.53,159.325c-2.16,0 -3.91,-1.76 -3.91,-3.92c0,-2.16 1.75,-3.92 3.91,-3.92c2.16,0 3.92,1.76 3.92,3.92c0,2.16 -1.76,3.92 -3.92,3.92z" fill="#e91e63"/><path d="M164.53,171.205c-6.57,0 -11.91,5.34 -11.91,11.92c0,6.57 5.34,11.91 11.91,11.91c6.58,0 11.92,-5.34 11.92,-11.91c0,-6.58 -5.34,-11.92 -11.92,-11.92zM164.53,187.035c-2.16,0 -3.91,-1.75 -3.91,-3.91c0,-2.17 1.75,-3.92 3.91,-3.92c2.16,0 3.92,1.75 3.92,3.92c0,2.16 -1.76,3.91 -3.92,3.91z" fill="#e91e63"/><path d="M164.53,198.915c-6.57,0 -11.91,5.35 -11.91,11.92c0,6.57 5.34,11.92 11.91,11.92c6.58,0 11.92,-5.35 11.92,-11.92c0,-6.57 -5.34,-11.92 -11.92,-11.92zM164.53,214.755c-2.16,0 -3.91,-1.76 -3.91,-3.92c0,-2.16 1.75,-3.92 3.91,-3.92c2.16,0 3.92,1.76 3.92,3.92c0,2.16 -1.76,3.92 -3.92,3.92z" fill="#e91e63"/></g></g></g></svg>