<svg version="1.1" xmlns="http://www.w3.org/2000/svg" xmlns:xlink="http://www.w3.org/1999/xlink" width="64px" height="64px" viewBox="0,0,256,256"><g fill="#e91e63" fill-rule="nonzero" stroke="none" stroke-width="1" stroke-linecap="butt" stroke-linejoin="miter" stroke-miterlimit="10" stroke-dasharray="" stroke-dashoffset="0" font-family="none" font-weight="none" font-size="none" text-anchor="none" style="mix-blend-mode: normal"><g transform="scale(4,4)"><path d="M9,2c-0.55228,0 -1,0.44772 -1,1v2h-5c-0.55228,0 -1,0.44772 -1,1v43c0,0.55228 0.44772,1 1,1h29.30078c1.43837,7.1055 7.75264,12.16545 15.00082,12.02093c7.24818,-0.14452 13.35573,-5.45215 14.50972,-12.60933c1.15399,-7.15719 -2.97588,-14.11544 -9.81132,-16.53073v-26.88086c0,-0.55228 -0.44772,-1 -1,-1h-5v-2c0,-0.55228 -0.44772,-1 -1,-1h-6c-0.55228,0 -1,0.44772 -1,1v2h-22v-2c0,-0.55228 -0.44772,-1 -1,-1zM10,4h4v4c0,1.10457 -0.89543,2 -2,2c-1.10457,0 -2,-0.89543 -2,-2zM40,4h4v4c0,1.10457 -0.89543,2 -2,2c-1.10457,0 -2,-0.89543 -2,-2zM4,7h4v1c0,2.20914 1.79086,4 4,4c2.20914,0 4,-1.79086 4,-4v-1h22v1c0,2.20914 1.79086,4 4,4c2.20914,0 4,-1.79086 4,-4v-1h4v7h-46zM4,16h46v16.30078c-0.98717,-0.20199 -1.99237,-0.30277 -3,-0.30078c-8.28016,0.00992 -14.99008,6.71984 -15,15c0,0.34 0.03078,0.67 0.05078,1h-28.05078zM42.22852,17.94141c-1.08865,-0.04522 -2.14864,0.35562 -2.93496,1.10987c-0.78632,0.75425 -1.23093,1.79664 -1.23106,2.88623c0,2.20914 1.79086,4 4,4c2.17273,-0.00565 3.94363,-1.74469 3.98873,-3.91696c0.0451,-2.17227 -1.6521,-3.98331 -3.82272,-4.07914zM32.19727,17.97266c-1.08865,-0.04522 -2.14864,0.35562 -2.93496,1.10987c-0.78632,0.75425 -1.23093,1.79664 -1.23106,2.88623c0,2.20914 1.79086,4 4,4c2.17273,-0.00565 3.94363,-1.74469 3.98873,-3.91696c0.0451,-2.17227 -1.6521,-3.98331 -3.82272,-4.07914zM9,18c-0.55228,0 -1,0.44772 -1,1v6c0,0.55228 0.44772,1 1,1h6c0.55228,0 1,-0.44772 1,-1v-6c0,-0.55228 -0.44772,-1 -1,-1zM22,18c-2.20914,0 -4,1.79086 -4,4c0,2.20914 1.79086,4 4,4c2.20914,0 4,-1.79086 4,-4c0,-2.20914 -1.79086,-4 -4,-4zM42.0625,19.9375c1.10457,0 2,0.89543 2,2c0,1.10457 -0.89543,2 -2,2c-1.10457,0 -2,-0.89543 -2,-2c0,-1.10457 0.89543,-2 2,-2zM32.03125,19.96875c1.10457,0 2,0.89543 2,2c0,1.10457 -0.89543,2 -2,2c-1.10457,0 -2,-0.89543 -2,-2c0,-1.10457 0.89543,-2 2,-2zM10,20h4v4h-4zM21.91602,20.00195c0.54449,-0.02288 1.07474,0.17741 1.46812,0.55457c0.39338,0.37716 0.61581,0.89851 0.61587,1.44348c0,1.10457 -0.89543,2 -2,2c-1.08654,-0.00232 -1.97246,-0.87169 -1.99528,-1.95799c-0.02282,-1.0863 0.82582,-1.99211 1.9113,-2.04005zM31.91406,27.9707c-2.18228,0.06809 -3.90681,1.87355 -3.87482,4.05666c0.03199,2.18311 1.80867,3.93726 3.99201,3.94139c2.20914,0 4,-1.79086 4,-4c-0.00006,-1.08115 -0.43777,-2.11622 -1.2134,-2.86941c-0.77563,-0.75318 -1.82311,-1.16031 -2.90379,-1.12864zM9,28c-0.55228,0 -1,0.44772 -1,1v6c0,0.55228 0.44772,1 1,1h6c0.55228,0 1,-0.44772 1,-1v-6c0,-0.55228 -0.44772,-1 -1,-1zM22,28c-2.20914,0 -4,1.79086 -4,4c0,2.20914 1.79086,4 4,4c2.20914,0 4,-1.79086 4,-4c0,-2.20914 -1.79086,-4 -4,-4zM32.08984,29.9707c1.08211,0.04575 1.93117,0.94457 1.9153,2.02752c-0.01587,1.08296 -0.89091,1.9565 -1.97389,1.97052c-1.10457,0 -2,-0.89543 -2,-2c0.0003,-0.5404 0.21927,-1.05769 0.60705,-1.43407c0.38778,-0.37638 0.91137,-0.57981 1.45155,-0.56398zM10,30h4v4h-4zM21.91602,30.00195c0.54449,-0.02288 1.07474,0.17741 1.46812,0.55457c0.39338,0.37716 0.61581,0.89851 0.61587,1.44348c0,1.10457 -0.89543,2 -2,2c-1.08654,-0.00232 -1.97246,-0.87169 -1.99528,-1.95799c-0.02282,-1.0863 0.82582,-1.99211 1.9113,-2.04005zM46,34.05078v2c-1.24594,0.11748 -2.463,0.44503 -3.59961,0.96875l-1.00977,-1.73047c1.44705,-0.69321 3.00975,-1.11302 4.60938,-1.23828zM48,34.05078c1.59963,0.12526 3.16233,0.54507 4.60938,1.23828l-1.00977,1.73047c-1.13661,-0.52372 -2.35367,-0.85127 -3.59961,-0.96875zM39.66016,36.2793l1,1.74023c-1.0193,0.72916 -1.91147,1.62132 -2.64062,2.64063l-1.74023,-1c0.91251,-1.32273 2.05813,-2.46835 3.38086,-3.38086zM54.33984,36.2793c1.32273,0.91251 2.46835,2.05813 3.38086,3.38086l-1.74023,1c-0.72916,-1.0193 -1.62132,-1.91147 -2.64062,-2.64062zM9,38c-0.55228,0 -1,0.44772 -1,1v6c0,0.55228 0.44772,1 1,1h6c0.55228,0 1,-0.44772 1,-1v-6c0,-0.55228 -0.44772,-1 -1,-1zM22,38c-2.20914,0 -4,1.79086 -4,4c0,2.20914 1.79086,4 4,4c2.20914,0 4,-1.79086 4,-4c0,-2.20914 -1.79086,-4 -4,-4zM47.26367,38.00391c4.91645,0.14489 8.80597,4.20989 8.73391,9.12794c-0.07206,4.91805 -4.079,8.86736 -8.99758,8.86815c-4.96737,-0.00771 -8.99229,-4.03263 -9,-9c0.00001,-2.43267 0.9848,-4.76172 2.72997,-6.45648c1.74517,-1.69476 4.10208,-2.61088 6.5337,-2.53961zM10,40h4v4h-4zM46,40v2c-1.10457,0 -2,0.89543 -2,2v2c0,1.10457 0.89543,2 2,2h2v2h-4v2h2v2h2v-2c1.10457,0 2,-0.89543 2,-2v-2c0,-1.10457 -0.89543,-2 -2,-2h-2v-2h4v-2h-2v-2zM21.91602,40.00195c0.54449,-0.02288 1.07474,0.17741 1.46812,0.55457c0.39338,0.37716 0.61581,0.89851 0.61587,1.44348c0,1.10457 -0.89543,2 -2,2c-1.08654,-0.00232 -1.97246,-0.87169 -1.99528,-1.95799c-0.02282,-1.0863 0.82582,-1.99211 1.9113,-2.04005zM35.28906,41.39063l1.73047,1.00977c-0.52372,1.13661 -0.85127,2.35367 -0.96875,3.59961h-2c0.12526,-1.59963 0.54507,-3.16233 1.23828,-4.60937zM58.71094,41.39063c0.69321,1.44705 1.11302,3.00975 1.23828,4.60938h-2c-0.11748,-1.24594 -0.44503,-2.463 -0.96875,-3.59961zM34.05078,48h2c0.11748,1.24594 0.44503,2.463 0.96875,3.59961l-1.73047,1.00977c-0.69321,-1.44705 -1.11302,-3.00975 -1.23828,-4.60937zM57.94922,48h2c-0.12526,1.59963 -0.54507,3.16233 -1.23828,4.60938l-1.73047,-1.00977c0.52372,-1.13661 0.85127,-2.35367 0.96875,-3.59961zM38.01953,53.33984c0.72916,1.0193 1.62132,1.91147 2.64063,2.64063l-1,1.74023c-1.32273,-0.91251 -2.46835,-2.05813 -3.38086,-3.38086zM55.98047,53.33984l1.74023,1c-0.91251,1.32273 -2.05813,2.46835 -3.38086,3.38086l-1,-1.74023c1.0193,-0.72916 1.91147,-1.62132 2.64063,-2.64062zM42.40039,56.98047c1.13661,0.52372 2.35367,0.85127 3.59961,0.96875v2c-1.59963,-0.12526 -3.16233,-0.54507 -4.60937,-1.23828zM51.59961,56.98047l1.00977,1.73047c-1.44705,0.69321 -3.00975,1.11302 -4.60937,1.23828v-2c1.24594,-0.11748 2.463,-0.44503 3.59961,-0.96875z"/></g></g></svg>