<svg version="1.1" xmlns="http://www.w3.org/2000/svg" xmlns:xlink="http://www.w3.org/1999/xlink" width="50px" height="50px" viewBox="0,0,256,256"><g fill="#e91e63" fill-rule="nonzero" stroke="none" stroke-width="1" stroke-linecap="butt" stroke-linejoin="miter" stroke-miterlimit="10" stroke-dasharray="" stroke-dashoffset="0" font-family="none" font-weight="none" font-size="none" text-anchor="none" style="mix-blend-mode: normal"><g transform="scale(5.12,5.12)"><path d="M25,3c-7.4385,0 -14.01769,3.70353 -18,9.36523v-5.36523c0.0037,-0.2703 -0.10218,-0.53059 -0.29351,-0.72155c-0.19133,-0.19097 -0.45182,-0.29634 -0.72212,-0.29212c-0.55152,0.00862 -0.99193,0.46214 -0.98437,1.01367v9h1.31055c0.13651,0.02888 0.27755,0.02888 0.41406,0h7.27539c0.36064,0.0051 0.69608,-0.18438 0.87789,-0.49587c0.18181,-0.3115 0.18181,-0.69676 0,-1.00825c-0.18181,-0.3115 -0.51725,-0.50097 -0.87789,-0.49587h-5.69531c3.57714,-5.41902 9.70866,-9 16.69531,-9c11.05756,0 20,8.94244 20,20c-0.0051,0.36064 0.18438,0.69608 0.49587,0.87789c0.3115,0.18181 0.69676,0.18181 1.00825,0c0.3115,-0.18181 0.50097,-0.51725 0.49587,-0.87789c0,-12.13844 -9.86156,-22 -22,-22zM25,13c-4.95,0 -9,4.27422 -9,9.44922c0,6.3 9,15.86328 9,15.86328c0,0 9,-9.56428 9,-15.86328c0,-5.175 -4.05,-9.44922 -9,-9.44922zM25,15c3.86,0 7,3.34122 7,7.44922c0,3.75 -4.22695,9.56161 -7.00195,12.84961c-2.774,-3.285 -6.99805,-9.09161 -6.99805,-12.84961c0,-4.108 3.14,-7.44922 7,-7.44922zM25,18c-1.25,0 -2.31477,0.50476 -2.99805,1.27344c-0.68327,0.76868 -1.00195,1.75434 -1.00195,2.72656c0,0.97222 0.31868,1.95788 1.00195,2.72656c0.68327,0.76868 1.74805,1.27344 2.99805,1.27344c1.25,0 2.31477,-0.50476 2.99805,-1.27344c0.68327,-0.76868 1.00195,-1.75434 1.00195,-2.72656c0,-0.97222 -0.31868,-1.95788 -1.00195,-2.72656c-0.68327,-0.76868 -1.74805,-1.27344 -2.99805,-1.27344zM25,20c0.75,0 1.18523,0.24524 1.50195,0.60156c0.31673,0.35632 0.49805,0.87066 0.49805,1.39844c0,0.52778 -0.18132,1.04212 -0.49805,1.39844c-0.31673,0.35632 -0.75195,0.60156 -1.50195,0.60156c-0.75,0 -1.18523,-0.24524 -1.50195,-0.60156c-0.31673,-0.35632 -0.49805,-0.87066 -0.49805,-1.39844c0,-0.52778 0.18132,-1.04212 0.49805,-1.39844c0.31673,-0.35632 0.75195,-0.60156 1.50195,-0.60156zM3.98438,23.98633c-0.55152,0.00862 -0.99193,0.46214 -0.98437,1.01367c0,12.13844 9.86156,22 22,22c7.43591,0 14.01759,-3.66498 18,-9.31836v5.31836c-0.0051,0.36064 0.18438,0.69608 0.49587,0.87789c0.3115,0.18181 0.69676,0.18181 1.00825,0c0.3115,-0.18181 0.50097,-0.51725 0.49587,-0.87789v-9h-1.27539c-0.14216,-0.03142 -0.28948,-0.03142 -0.43164,0l-7.29297,0.00195c-0.36064,-0.0051 -0.69608,0.18438 -0.87789,0.49587c-0.18181,0.3115 -0.18181,0.69676 0,1.00825c0.18181,0.3115 0.51725,0.50097 0.87789,0.49587l5.72461,-0.00195c-3.57072,5.43517 -9.71459,9 -16.72461,9c-11.05756,0 -20,-8.94244 -20,-20c0.0037,-0.2703 -0.10218,-0.53059 -0.29351,-0.72155c-0.19133,-0.19097 -0.45182,-0.29634 -0.72212,-0.29212z"/></g></g></svg>