<svg version="1.1" xmlns="http://www.w3.org/2000/svg" xmlns:xlink="http://www.w3.org/1999/xlink" width="64px" height="64px" viewBox="0,0,256,256"><g fill="none" fill-rule="nonzero" stroke="none" stroke-width="1" stroke-linecap="butt" stroke-linejoin="miter" stroke-miterlimit="10" stroke-dasharray="" stroke-dashoffset="0" font-family="none" font-weight="none" font-size="none" text-anchor="none" style="mix-blend-mode: normal"><g transform="scale(4,4)"><path d="M56.8,37.8c-0.5,0.7 -0.8,1.6 -0.7,2.4l1,6c0.1,0.5 -0.2,1 -0.7,1.1l-5.7,2.2c-0.8,0.3 -1.5,1 -1.8,1.8l-2.2,5.7c-0.2,0.5 -0.6,0.7 -1.1,0.7l-6,-1c-0.9,-0.1 -1.7,0.1 -2.4,0.7l-4.7,3.8c-0.4,0.3 -0.9,0.3 -1.3,0l-4.7,-3.8c-0.7,-0.5 -1.6,-0.8 -2.4,-0.7l-6,1c-0.5,0.1 -1,-0.2 -1.1,-0.7l-2.2,-5.7c-0.3,-0.8 -1,-1.5 -1.8,-1.8l-5.6,-2.2c-0.5,-0.2 -0.7,-0.6 -0.7,-1.1l0.9,-6c0.1,-0.9 -0.1,-1.7 -0.7,-2.4l-3.8,-4.7c-0.3,-0.4 -0.3,-0.9 0,-1.3l3.8,-4.7c0.5,-0.7 0.8,-1.6 0.7,-2.4l-0.9,-6c-0.1,-0.5 0.2,-1 0.7,-1.1l5.7,-2.2c0.8,-0.3 1.5,-1 1.8,-1.8l2.2,-5.7c0.2,-0.5 0.6,-0.7 1.1,-0.7l6,1c0.9,0.1 1.7,-0.1 2.4,-0.7l4.7,-3.8c0.4,-0.3 0.9,-0.3 1.3,0v0l4.7,3.8c0.7,0.5 1.6,0.8 2.4,0.7l6,-1c0.5,-0.1 1,0.2 1.1,0.7l2.2,5.7c0.3,0.8 1,1.5 1.8,1.8l5.7,2.2c0.5,0.2 0.7,0.6 0.7,1.1l-1,6c-0.1,0.9 0.1,1.7 0.7,2.4l3.8,4.7c0.3,0.4 0.3,0.9 0,1.3z" fill="#ffffff"/><path d="M32,13c-10.5,0 -19,8.5 -19,19c0,10.5 8.5,19 19,19c10.5,0 19,-8.5 19,-19c0,-10.5 -8.5,-19 -19,-19z" fill="#ffffff"/><path d="M32,49c-0.6,0 -1,0.4 -1,1v2c0,0.6 0.4,1 1,1c0.6,0 1,-0.4 1,-1v-2c0,-0.6 -0.4,-1 -1,-1zM32,15c0.6,0 1,-0.4 1,-1v-2c0,-0.6 -0.4,-1 -1,-1c-0.6,0 -1,0.4 -1,1v2c0,0.6 0.4,1 1,1zM52,31h-2c-0.6,0 -1,0.4 -1,1c0,0.6 0.4,1 1,1h2c0.6,0 1,-0.4 1,-1c0,-0.6 -0.4,-1 -1,-1zM14,33c0.6,0 1,-0.4 1,-1c0,-0.6 -0.4,-1 -1,-1h-2c-0.6,0 -1,0.4 -1,1c0,0.6 0.4,1 1,1zM18.6,44l-1.4,1.4c-0.4,0.4 -0.4,1 0,1.4c0.4,0.4 1,0.4 1.4,0v0l1.4,-1.4c0.4,-0.4 0.4,-1 0,-1.4c-0.4,-0.4 -1,-0.4 -1.4,0zM44.7,20.3c0.3,0 0.5,-0.1 0.7,-0.3l1.4,-1.4c0.4,-0.4 0.4,-1 0,-1.4c-0.4,-0.4 -1,-0.4 -1.4,0l-1.4,1.4c-0.4,0.4 -0.4,1 0,1.4c0.2,0.2 0.4,0.3 0.7,0.3zM45.4,44c-0.4,-0.4 -1,-0.4 -1.4,0c-0.4,0.4 -0.4,1 0,1.4l1.4,1.4c0.4,0.4 1,0.4 1.4,0c0.4,-0.4 0.4,-1 0,-1.4v0zM18.6,20c0.4,0.4 1,0.4 1.4,0c0.4,-0.4 0.4,-1 0,-1.4l-1.4,-1.4c-0.4,-0.4 -1,-0.4 -1.4,0c-0.4,0.4 -0.4,1 0,1.4zM37.6,49.1c-0.1,-0.5 -0.7,-0.9 -1.2,-0.7c-0.5,0.1 -0.9,0.7 -0.7,1.2c0,0 0,0 0,0.1l0.5,1.9c0.1,0.5 0.7,0.9 1.2,0.7c0.5,-0.1 0.9,-0.7 0.7,-1.2c0,0 0,0 0,-0.1zM26.4,14.9c0.1,0.5 0.7,0.9 1.2,0.7c0.5,-0.2 0.9,-0.7 0.7,-1.2c0,0 0,0 0,-0.1l-0.5,-1.9c-0.1,-0.5 -0.7,-0.9 -1.2,-0.7c-0.5,0.1 -0.9,0.7 -0.7,1.2c0,0 0,0 0,0.1zM48.4,27.6c0.1,0.5 0.7,0.8 1.2,0.7l1.9,-0.5c0.5,-0.1 0.9,-0.7 0.7,-1.2c-0.1,-0.5 -0.7,-0.9 -1.2,-0.7c0,0 0,0 -0.1,0l-1.9,0.5c-0.4,0.1 -0.7,0.7 -0.6,1.2zM15.6,36.4c-0.1,-0.5 -0.7,-0.8 -1.2,-0.7l-1.9,0.5c-0.5,0.1 -0.9,0.7 -0.7,1.2c0.2,0.5 0.7,0.9 1.2,0.7c0,0 0,0 0.1,0l1.9,-0.5c0.4,-0.1 0.7,-0.7 0.6,-1.2zM23.5,46.7c-0.5,-0.3 -1.1,-0.1 -1.4,0.4v0l-1,1.7c-0.3,0.5 -0.1,1.1 0.4,1.3c0.5,0.2 1,0.1 1.3,-0.3l1,-1.7c0.3,-0.5 0.2,-1.1 -0.3,-1.4zM40.5,17.3c0.5,0.3 1.1,0.1 1.4,-0.4v0l1,-1.7c0.3,-0.5 0.2,-1.1 -0.3,-1.4c-0.5,-0.3 -1.1,-0.2 -1.4,0.3c0,0 0,0 0,0.1l-1,1.7c-0.3,0.5 -0.2,1.1 0.3,1.4zM49.8,41.1l-1.7,-1c-0.5,-0.3 -1.1,-0.2 -1.4,0.3c-0.3,0.5 -0.2,1.1 0.3,1.4c0,0 0,0 0.1,0l1.7,1c0.2,0.1 0.3,0.1 0.5,0.1c0.6,0 1,-0.4 1,-1c0,-0.3 -0.2,-0.6 -0.5,-0.8zM14.2,22.9l1.7,1c0.2,0.1 0.3,0.1 0.5,0.1c0.6,0 1,-0.4 1,-1c0,-0.4 -0.2,-0.7 -0.5,-0.9l-1.7,-1c-0.5,-0.3 -1.1,-0.2 -1.4,0.3c-0.3,0.5 -0.2,1.1 0.4,1.5c-0.1,-0.1 0,-0.1 0,0zM41.9,47.1c-0.3,-0.5 -0.9,-0.6 -1.4,-0.3c-0.4,0.3 -0.6,0.8 -0.3,1.3l1,1.7c0.3,0.5 0.9,0.7 1.3,0.4c0.4,-0.3 0.7,-0.9 0.4,-1.3c0,0 0,0 0,-0.1zM22.1,16.9c0.3,0.5 0.9,0.6 1.4,0.3c0.4,-0.3 0.6,-0.8 0.3,-1.3l-1,-1.7c-0.3,-0.5 -0.9,-0.6 -1.4,-0.3c-0.4,0.3 -0.6,0.8 -0.3,1.3zM46.7,23.5c0.2,0.3 0.5,0.5 0.9,0.5c0.2,0 0.3,0 0.5,-0.1l1.7,-1c0.5,-0.3 0.7,-0.9 0.4,-1.3c-0.3,-0.5 -0.9,-0.7 -1.3,-0.4c0,0 0,0 -0.1,0l-1.7,1c-0.5,0.2 -0.7,0.8 -0.4,1.3zM17.3,40.5c-0.3,-0.5 -0.9,-0.6 -1.4,-0.4v0l-1.7,1c-0.5,0.3 -0.7,0.9 -0.4,1.3c0.3,0.5 0.9,0.7 1.3,0.4c0,0 0,0 0.1,0l1.7,-1c0.5,-0.2 0.7,-0.8 0.4,-1.3zM27.6,48.4c-0.5,-0.1 -1.1,0.2 -1.2,0.7l-0.5,1.9c-0.2,0.5 0.1,1.1 0.7,1.2c0.5,0.2 1.1,-0.1 1.2,-0.7c0,0 0,0 0,-0.1l0.5,-1.9c0.2,-0.4 -0.2,-0.9 -0.7,-1.1zM36.4,15.6c0.5,0.1 1.1,-0.2 1.2,-0.7l0.5,-1.9c0.2,-0.5 -0.1,-1.1 -0.7,-1.2c-0.5,-0.2 -1.1,0.1 -1.2,0.7c0,0 0,0 0,0.1l-0.5,1.9c-0.2,0.4 0.2,0.9 0.7,1.1zM51.6,36.2l-1.9,-0.5c-0.5,-0.1 -1.1,0.2 -1.2,0.7c-0.1,0.5 0.2,1 0.7,1.2l1.9,0.5c0.5,0.2 1.1,-0.1 1.2,-0.7c0.1,-0.6 -0.1,-1 -0.7,-1.2zM12.4,27.8l1.9,0.5c0.5,0.1 1.1,-0.2 1.2,-0.7c0.1,-0.5 -0.2,-1 -0.7,-1.2l-1.9,-0.5c-0.5,-0.2 -1.1,0.1 -1.2,0.7c-0.2,0.5 0.1,1 0.7,1.2z" fill="#e91e63"/><path d="M61.4,33.9c0.9,-1.1 0.9,-2.7 0,-3.8l-3.7,-4.6c-0.2,-0.2 -0.3,-0.5 -0.2,-0.8l0.9,-5.8c0.2,-1.4 -0.6,-2.8 -1.9,-3.3l-5.5,-2.1c-0.3,-0.1 -0.5,-0.3 -0.6,-0.6l-2.1,-5.5c-0.5,-1.3 -1.9,-2.1 -3.3,-1.9l-5.8,0.9c-0.3,0 -0.6,0 -0.8,-0.2l-4.5,-3.7v0c-1.1,-0.9 -2.7,-0.9 -3.8,0l-4.6,3.7c-0.2,0.2 -0.5,0.3 -0.8,0.2l-5.8,-0.9c-1.4,-0.2 -2.8,0.6 -3.3,1.9l-2.1,5.6c-0.1,0.3 -0.3,0.5 -0.6,0.6l-5.5,2.1c-1.3,0.5 -2.1,1.9 -1.9,3.3l0.9,5.8c0,0.3 0,0.6 -0.2,0.8l-3.7,4.5c-0.9,1.1 -0.9,2.7 0,3.8l3.7,4.6c0.2,0.2 0.3,0.5 0.2,0.8l-0.9,5.8c-0.2,1.4 0.6,2.8 1.9,3.3l5.5,2.1c0.3,0.1 0.5,0.3 0.6,0.6l2.1,5.5c0.5,1.3 1.9,2.1 3.3,1.9l5.8,-0.9c0.3,0 0.6,0 0.8,0.2l4.6,3.7c1.1,0.9 2.7,0.9 3.8,0l4.6,-3.7c0.2,-0.2 0.5,-0.3 0.8,-0.2l5.8,0.9c1.4,0.2 2.8,-0.6 3.3,-1.9l2.1,-5.5c0.1,-0.3 0.3,-0.5 0.6,-0.6l5.5,-2.1c1.3,-0.5 2.1,-1.9 1.9,-3.3l-0.9,-5.8c0,-0.3 0,-0.6 0.2,-0.8zM56.2,37.2c-0.5,0.7 -0.8,1.5 -0.6,2.4l0.9,5.8c0.1,0.5 -0.2,0.9 -0.6,1.1l-5.5,2.1c-0.8,0.3 -1.4,0.9 -1.7,1.7l-2.1,5.5c-0.2,0.4 -0.6,0.7 -1.1,0.6l-5.8,-0.9c-0.8,-0.1 -1.7,0.1 -2.4,0.6l-4.6,3.7c-0.4,0.3 -0.9,0.3 -1.3,0l-4.6,-3.7c-0.7,-0.5 -1.5,-0.8 -2.4,-0.6l-5.8,0.9c-0.5,0.1 -0.9,-0.2 -1.1,-0.6l-2.1,-5.5c-0.3,-0.8 -0.9,-1.4 -1.7,-1.7l-5.5,-2.1c-0.4,-0.2 -0.7,-0.6 -0.6,-1.1l0.9,-5.8c0.1,-0.8 -0.1,-1.7 -0.6,-2.4l-3.7,-4.6c-0.3,-0.4 -0.3,-0.9 0,-1.3l3.7,-4.6c0.5,-0.7 0.8,-1.5 0.6,-2.4l-0.9,-5.8c-0.1,-0.5 0.2,-0.9 0.6,-1.1l5.5,-2.1c0.8,-0.3 1.4,-0.9 1.7,-1.7l2.1,-5.5c0.2,-0.4 0.6,-0.7 1.1,-0.6l5.8,0.9c0.8,0.1 1.7,-0.1 2.4,-0.6l4.6,-3.7c0.4,-0.3 0.9,-0.3 1.3,0l4.6,3.7c0.7,0.5 1.5,0.8 2.4,0.6l5.8,-0.9c0.5,-0.1 0.9,0.2 1.1,0.6l2.1,5.5c0.3,0.8 0.9,1.4 1.7,1.7l5.5,2.1c0.4,0.2 0.7,0.6 0.6,1.1l-0.9,5.8c-0.1,0.8 0.1,1.7 0.6,2.4l3.7,4.6c0.3,0.4 0.3,0.9 0,1.3z" fill="#e91e63"/><path d="M44.7,24.3c-0.4,-0.4 -1,-0.4 -1.4,0l-14.3,14.3l-7.3,-7.3c-0.4,-0.4 -1.1,-0.3 -1.4,0.1c-0.3,0.4 -0.3,0.9 0,1.3l8,8c0.4,0.4 1,0.4 1.4,0l15,-15c0.4,-0.4 0.4,-1 0,-1.4z" fill="#e91e63"/></g></g></svg>